<svg width="37" height="51" viewBox="0 0 37 51" fill="none" xmlns="http://www.w3.org/2000/svg">
<g clip-path="url(#clip0_84_5993)">
<path d="M16.3165 25.3721L11.4937 16.0739L14.4807 6.49023L32.2854 12.1123L29.2949 21.7134L20.0779 26.5592L24.8696 35.7982L21.9759 45.0929L4.20239 39.4778L7.06843 30.2805L16.3165 25.3721Z" fill="white"/>
<path d="M0.271724 43.5807L22.9236 50.7373L24.5827 45.4129L1.93083 38.2563L0.271724 43.5807Z" fill="#090909"/>
<path d="M11.9587 6.06119L34.6106 13.2178L36.2697 7.8934L13.6178 0.736815L11.9587 6.06119Z" fill="#090909"/>
<path d="M24.5812 35.2094L21.5435 44.958L22.477 45.2529L25.5147 35.5043L24.5812 35.2094Z" fill="#090909"/>
<path d="M31.7157 12.3031L28.678 22.0518L29.6115 22.3467L32.6492 12.5981L31.7157 12.3031Z" fill="#090909"/>
<path d="M23.5552 34.8804L24.5613 35.1982L24.877 34.1852L23.8709 33.8673L23.5552 34.8804Z" fill="#090909"/>
<path d="M22.8655 33.5503L23.8716 33.8682L24.1873 32.8551L23.1812 32.5372L22.8655 33.5503Z" fill="#090909"/>
<path d="M22.1758 32.2222L23.1819 32.54L23.4976 31.527L22.4915 31.2091L22.1758 32.2222Z" fill="#090909"/>
<path d="M21.4861 30.8921L22.4922 31.21L22.8079 30.1969L21.8018 29.879L21.4861 30.8921Z" fill="#090909"/>
<path d="M20.7962 29.564L21.8022 29.8818L22.1179 28.8688L21.1118 28.5509L20.7962 29.564Z" fill="#090909"/>
<path d="M20.1065 28.2378L21.1125 28.5557L21.4282 27.5426L20.4221 27.2247L20.1065 28.2378Z" fill="#090909"/>
<path d="M19.4177 26.9058L20.4238 27.2236L20.7395 26.2106L19.7334 25.8927L19.4177 26.9058Z" fill="#090909"/>
<path d="M20.7371 26.2105L21.7432 26.5283L22.0588 25.5153L21.0527 25.1974L20.7371 26.2105Z" fill="#090909"/>
<path d="M22.0576 25.5161L23.0637 25.834L23.3794 24.8209L22.3733 24.5031L22.0576 25.5161Z" fill="#090909"/>
<path d="M23.377 24.8218L24.3831 25.1396L24.6987 24.1266L23.6926 23.8087L23.377 24.8218Z" fill="#090909"/>
<path d="M24.6975 24.1275L25.7036 24.4453L26.0193 23.4323L25.0132 23.1144L24.6975 24.1275Z" fill="#090909"/>
<path d="M26.0169 23.4331L27.0229 23.751L27.3386 22.7379L26.3325 22.4201L26.0169 23.4331Z" fill="#090909"/>
<path d="M27.3372 22.7398L28.3433 23.0576L28.6589 22.0446L27.6528 21.7267L27.3372 22.7398Z" fill="#090909"/>
<path d="M6.78406 29.5854L3.74634 39.334L4.67986 39.6289L7.71758 29.8803L6.78406 29.5854Z" fill="#090909"/>
<path d="M13.922 6.68009L10.8843 16.4287L11.8178 16.7236L14.8555 6.97502L13.922 6.68009Z" fill="#090909"/>
<path d="M9.05614 29.1919L8.05005 28.874L7.73437 29.8871L8.74046 30.2049L9.05614 29.1919Z" fill="#090909"/>
<path d="M10.3769 28.4975L9.37085 28.1797L9.05517 29.1927L10.0613 29.5106L10.3769 28.4975Z" fill="#090909"/>
<path d="M11.699 27.8032L10.6929 27.4854L10.3772 28.4984L11.3833 28.8163L11.699 27.8032Z" fill="#090909"/>
<path d="M13.0163 27.1079L12.0103 26.79L11.6946 27.8031L12.7007 28.121L13.0163 27.1079Z" fill="#090909"/>
<path d="M14.3384 26.4136L13.3323 26.0957L13.0166 27.1088L14.0227 27.4266L14.3384 26.4136Z" fill="#090909"/>
<path d="M15.6592 25.7183L14.6531 25.4004L14.3374 26.4135L15.3435 26.7313L15.6592 25.7183Z" fill="#090909"/>
<path d="M16.9775 25.0239L15.9714 24.7061L15.6558 25.7191L16.6618 26.037L16.9775 25.0239Z" fill="#090909"/>
<path d="M16.2869 23.6968L15.2808 23.3789L14.9651 24.392L15.9712 24.7098L16.2869 23.6968Z" fill="#090909"/>
<path d="M15.5972 22.3667L14.5911 22.0488L14.2754 23.0619L15.2815 23.3798L15.5972 22.3667Z" fill="#090909"/>
<path d="M14.9075 21.0386L13.9014 20.7207L13.5857 21.7338L14.5918 22.0516L14.9075 21.0386Z" fill="#090909"/>
<path d="M14.2178 19.7095L13.2117 19.3916L12.896 20.4047L13.9021 20.7225L14.2178 19.7095Z" fill="#090909"/>
<path d="M13.5315 18.3794L12.5254 18.0615L12.2097 19.0746L13.2158 19.3924L13.5315 18.3794Z" fill="#090909"/>
<path d="M12.8384 17.0483L11.8323 16.7305L11.5166 17.7435L12.5227 18.0614L12.8384 17.0483Z" fill="#090909"/>
<path d="M17.9482 13.6514L17.5887 14.8106L18.4841 15.0926L18.1591 16.13L19.1029 16.4294L18.8125 17.3623L19.7321 17.6513L19.4383 18.5842L19.8877 18.7269L17.1807 27.4055L16.7347 27.2662L16.4443 28.1992L15.5282 27.9102L15.2378 28.8397L14.2939 28.5438L13.969 29.5812L13.0735 29.2992L12.51 31.1094L19.9465 33.4592L20.5135 31.649L19.6146 31.3636L19.9396 30.3262L18.9957 30.0303L19.2862 29.0973L18.37 28.8049L18.6604 27.8754L18.211 27.7327L20.918 19.0507L21.3639 19.1934L21.6543 18.2605L22.5705 18.5494L22.8609 17.6164L23.8047 17.9158L24.1297 16.8784L25.0251 17.1604L25.3881 16.0012L27.9119 16.7984L29.2983 12.3494L16.8108 8.40527L15.4244 12.8507L17.9482 13.6514Z" fill="#BDBBBF"/>
</g>
<defs>
<clipPath id="clip0_84_5993">
<rect width="36" height="50" fill="white" transform="translate(0.268066 0.736328)"/>
</clipPath>
</defs>
</svg>
