<svg width="23" height="22" viewBox="0 0 23 22" fill="none" xmlns="http://www.w3.org/2000/svg">
<path d="M4.17383 21.79C3.77669 21.79 3.52279 21.6663 3.41211 21.4189C3.30143 21.1715 3.35352 20.9079 3.56836 20.6279C3.69857 20.4652 3.8776 20.2471 4.10547 19.9736C4.33333 19.7067 4.57096 19.4105 4.81836 19.085C5.06576 18.7594 5.28711 18.4404 5.48242 18.1279C5.52799 18.0433 5.53776 17.9652 5.51172 17.8936C5.48568 17.8219 5.43034 17.7601 5.3457 17.708C4.27799 17.1351 3.36328 16.4515 2.60156 15.6572C1.83984 14.8564 1.25716 13.9808 0.853516 13.0303C0.44987 12.0798 0.248047 11.0804 0.248047 10.0322C0.248047 8.77572 0.53776 7.59733 1.11719 6.49707C1.70312 5.3903 2.51042 4.4235 3.53906 3.59668C4.57422 2.76335 5.77539 2.1123 7.14258 1.64355C8.51628 1.1748 9.98763 0.94043 11.5566 0.94043C13.1257 0.94043 14.5938 1.1748 15.9609 1.64355C17.3346 2.1123 18.5391 2.76335 19.5742 3.59668C20.6094 4.4235 21.4167 5.3903 21.9961 6.49707C22.5755 7.59733 22.8652 8.77572 22.8652 10.0322C22.8652 11.0804 22.6732 12.0667 22.2891 12.9912C21.9115 13.9092 21.3678 14.7425 20.6582 15.4912C19.9486 16.2399 19.0957 16.8877 18.0996 17.4346C17.11 17.9814 16 18.4014 14.7695 18.6943C13.5456 18.9873 12.2272 19.1338 10.8145 19.1338C10.7689 19.1338 10.7135 19.1305 10.6484 19.124C10.5898 19.124 10.5312 19.1208 10.4727 19.1143C10.3945 19.1143 10.3164 19.1273 10.2383 19.1533C10.1602 19.1794 10.0723 19.2249 9.97461 19.29C9.53841 19.6025 9.04688 19.9053 8.5 20.1982C7.95312 20.4977 7.40625 20.7679 6.85938 21.0088C6.3125 21.2497 5.80143 21.4385 5.32617 21.5752C4.85091 21.7184 4.4668 21.79 4.17383 21.79Z" fill="#202020"/>
</svg>
