<svg width="96" height="107" viewBox="0 0 96 107" fill="none" xmlns="http://www.w3.org/2000/svg">
<path d="M95.5979 37.9386L89.201 26.0087L87.2032 22.1463L39.6094 7.73535L38.365 11.8375L34.1297 10.5551L32.8853 14.6573L28.6499 13.3749L5.87476 88.5843L65.5392 106.652L66.7835 102.55L71.0189 103.832L72.2633 99.7264L76.4987 101.013L95.5141 38.2164L95.3276 37.8587L95.5979 37.9386Z" fill="black"/>
<path d="M83.8811 15.6014L36.2873 1.19043L13.8242 75.3762L73.4886 93.4441L92.2453 31.504L83.8811 15.6014Z" fill="white"/>
<path d="M73.6865 93.8132L13.4551 75.574L36.0932 0.821289L84.0867 15.354L84.1437 15.4644L92.565 31.4774L92.5308 31.5916L73.6903 93.8132H73.6865ZM14.1933 75.1821L73.2946 93.0788L91.9295 31.5345L83.6795 15.8449L36.489 1.55572L14.1933 75.1783V75.1821Z" fill="black"/>
<path d="M83.7935 15.5752L80.167 27.5469L92.3289 31.2305L83.7935 15.5752Z" fill="white"/>
<path d="M92.3289 31.5157C92.3023 31.5157 92.2757 31.5119 92.2452 31.5043L80.0833 27.8207C80.011 27.7979 79.9501 27.7484 79.9158 27.6837C79.8816 27.619 79.874 27.5391 79.893 27.4668L83.5195 15.4951C83.5537 15.3848 83.6489 15.3087 83.763 15.2934C83.8734 15.282 83.9876 15.3391 84.0408 15.438L92.5763 31.0934C92.6334 31.1961 92.622 31.3179 92.5459 31.4092C92.4926 31.4777 92.4089 31.5119 92.3251 31.5119L92.3289 31.5157ZM80.5209 27.3603L91.7467 30.7585L83.8658 16.3057L80.5171 27.3603H80.5209Z" fill="black"/>
<path d="M77.2712 19.1403L29.6773 4.72559L7.21045 78.9152L66.8787 96.9831L85.6354 35.043L77.2712 19.1403Z" fill="white"/>
<path d="M67.0767 97.3523L6.84521 79.1131L29.4834 4.36035L77.4767 18.8931L77.5338 19.0034L85.9551 35.0164L85.9209 35.1306L67.0805 97.3523H67.0767ZM7.58348 78.7211L66.6847 96.6178L85.3197 35.0735L77.0696 19.384L29.8792 5.09479L7.58348 78.7173V78.7211Z" fill="black"/>
<path d="M77.1837 19.1104L73.5571 31.0859L85.7191 34.7695L77.1837 19.1104Z" fill="white"/>
<path d="M85.7191 35.0509C85.6924 35.0509 85.6658 35.0471 85.6354 35.0395L73.4734 31.3559C73.4011 31.333 73.3402 31.2836 73.306 31.2189C73.2717 31.1542 73.2641 31.0743 73.2831 31.002L76.9096 19.0303C76.9439 18.9199 77.039 18.8438 77.1532 18.8286C77.2635 18.8172 77.3777 18.8743 77.431 18.9732L85.9664 34.6285C86.0235 34.7313 86.0121 34.853 85.936 34.9444C85.8827 35.0129 85.799 35.0471 85.7153 35.0471L85.7191 35.0509ZM73.911 30.8954L85.1368 34.2936L77.2559 19.8408L73.9072 30.8954H73.911Z" fill="black"/>
<path d="M70.6613 22.6756L23.0675 8.26465L0.600586 82.4542L60.2688 100.522L79.0255 38.5821L70.6613 22.6756Z" fill="white"/>
<path d="M60.4629 100.887L0.231445 82.6483L22.8696 7.89551L70.863 22.4282L70.9201 22.5386L79.3414 38.5516L79.3071 38.6657L60.4629 100.887ZM0.969712 82.2563L60.0709 100.153L78.7059 38.6087L70.4558 22.9191L23.2654 8.62994L0.969712 82.2525V82.2563Z" fill="black"/>
<path d="M70.57 22.6494L66.9473 34.6249L79.1054 38.3047L70.57 22.6494Z" fill="white"/>
<path d="M79.1092 38.59C79.0826 38.59 79.056 38.5862 79.0255 38.5786L66.8636 34.895C66.7913 34.8721 66.7303 34.8226 66.6961 34.7579C66.6618 34.6933 66.6543 34.6134 66.6733 34.5411L70.2998 22.5693C70.334 22.459 70.4292 22.3829 70.5433 22.3677C70.6575 22.3562 70.7678 22.4133 70.8211 22.5123L79.3566 38.1676C79.4137 38.2703 79.4023 38.3921 79.3262 38.4834C79.2729 38.5519 79.1891 38.5862 79.1054 38.5862L79.1092 38.59ZM67.3011 34.4345L78.527 37.8327L70.6461 23.3799L67.2973 34.4345H67.3011Z" fill="black"/>
<mask id="mask0_84_5692" style="mask-type:luminance" maskUnits="userSpaceOnUse" x="22" y="29" width="44" height="35">
<path d="M38.1253 63.6751L64.645 55.0026L65.2729 42.9358L57.3349 36.2231L44.1568 41.8056L36.9952 29.8682L28.4483 31.2305L22.4167 41.8056L38.1253 63.6751Z" fill="white"/>
</mask>
<g mask="url(#mask0_84_5692)">
<path d="M62.0193 63.6751L65.2729 52.9287V63.6751H62.0193Z" fill="#D1D0E7"/>
<path d="M61.479 63.6747L65.2729 51.1436V52.9283L62.0193 63.6747H61.479Z" fill="#D1D0E7"/>
<path d="M60.9385 63.6753L65.2728 49.3633V51.1442L61.4789 63.6753H60.9385Z" fill="#D1D0E7"/>
<path d="M60.3982 63.675L65.2729 47.582V49.3629L60.9385 63.675H60.3982Z" fill="#D2D0E6"/>
<path d="M59.8579 63.6755L65.2729 45.7979V47.5826L60.3983 63.6755H59.8579Z" fill="#D2CFE6"/>
<path d="M59.3213 63.6752L65.2729 44.0166V45.7975L59.8579 63.6752H59.3213Z" fill="#D3CFE6"/>
<path d="M58.781 63.6748L65.2729 42.2354V44.0163L59.3213 63.6748H58.781Z" fill="#D3CEE5"/>
<path d="M58.2405 63.6754L65.2728 40.4512V42.2359L58.7809 63.6754H58.2405Z" fill="#D4CEE4"/>
<path d="M57.7002 63.675L65.2729 38.6699V40.4508L58.2406 63.675H57.7002Z" fill="#D5CDE4"/>
<path d="M57.1599 63.6752L65.0636 37.5703L65.2729 37.635V38.6701L57.7002 63.6752H57.1599Z" fill="#D5CDE3"/>
<path d="M56.6233 63.6752L64.5727 37.4219L65.0636 37.5703L57.1599 63.6752H56.6233Z" fill="#D6CCE3"/>
<path d="M56.0828 63.6751L64.0779 37.2734L64.5726 37.4218L56.6231 63.6751H56.0828Z" fill="#D7CCE2"/>
<path d="M55.5425 63.675L63.5832 37.1211L64.0779 37.2733L56.0828 63.675H55.5425Z" fill="#D8CBE1"/>
<path d="M55.0022 63.675L63.0886 36.9727L63.5833 37.1211L55.5426 63.675H55.0022Z" fill="#D9CAE0"/>
<path d="M54.4617 63.6749L62.5938 36.8242L63.0885 36.9726L55.002 63.6749H54.4617Z" fill="#DACADF"/>
<path d="M53.9253 63.6748L62.0992 36.6719L62.5939 36.8241L54.4618 63.6748H53.9253Z" fill="#DBC9DF"/>
<path d="M53.3848 63.6748L61.6044 36.5234L62.0991 36.6719L53.9251 63.6748H53.3848Z" fill="#DCC8DE"/>
<path d="M52.8445 63.6748L61.1098 36.375L61.6045 36.5234L53.3849 63.6748H52.8445Z" fill="#DDC7DD"/>
<path d="M52.3042 63.6756L60.6151 36.2236L61.1098 36.3758L52.8445 63.6756H52.3042Z" fill="#DEC7DC"/>
<path d="M51.7637 63.6756L60.1203 36.0752L60.615 36.2236L52.3041 63.6756H51.7637Z" fill="#DFC6DB"/>
<path d="M51.2234 63.6756L59.6295 35.9268L60.1204 36.0752L51.7638 63.6756H51.2234Z" fill="#E0C5DA"/>
<path d="M50.6868 63.6754L59.1347 35.7744L59.6294 35.9266L51.2233 63.6754H50.6868Z" fill="#E1C4D9"/>
<path d="M50.1465 63.6754L58.6401 35.626L59.1348 35.7744L50.6869 63.6754H50.1465Z" fill="#E2C3D8"/>
<path d="M49.6062 63.6754L58.1455 35.4775L58.6402 35.626L50.1466 63.6754H49.6062Z" fill="#E3C3D7"/>
<path d="M49.0657 63.6752L57.6506 35.3252L58.1453 35.4774L49.606 63.6752H49.0657Z" fill="#E4C2D6"/>
<path d="M48.5254 63.6752L57.156 35.1768L57.6507 35.3252L49.0658 63.6752H48.5254Z" fill="#E5C1D5"/>
<path d="M47.9888 63.6752L56.6612 35.0283L57.1559 35.1767L48.5253 63.6752H47.9888Z" fill="#E7C0D4"/>
<path d="M47.4485 63.6751L56.1666 34.876L56.6613 35.0282L47.9888 63.6751H47.4485Z" fill="#E8BFD3"/>
<path d="M46.9082 63.675L55.672 34.7275L56.1667 34.8759L47.4486 63.675H46.9082Z" fill="#E9BED2"/>
<path d="M46.3677 63.675L55.1771 34.5791L55.6718 34.7275L46.9081 63.675H46.3677Z" fill="#EABDD1"/>
<path d="M45.8274 63.6749L54.6825 34.4268L55.1772 34.579L46.3677 63.6749H45.8274Z" fill="#ECBCD0"/>
<path d="M45.2871 63.6748L54.1917 34.2783L54.6826 34.4267L45.8275 63.6748H45.2871Z" fill="#EDBBCF"/>
<path d="M44.7505 63.6748L53.6969 34.1299L54.1916 34.2783L45.2871 63.6748H44.7505Z" fill="#EEBACD"/>
<path d="M44.2102 63.6747L53.2023 33.9775L53.697 34.1298L44.7505 63.6747H44.2102Z" fill="#F0B9CC"/>
<path d="M43.6697 63.6747L52.7074 33.8291L53.2022 33.9775L44.2101 63.6747H43.6697Z" fill="#F1B8CB"/>
<path d="M43.1294 63.6756L52.2128 33.6816L52.7075 33.83L43.6697 63.6756H43.1294Z" fill="#F2B7CA"/>
<path d="M42.5891 63.6755L51.7182 33.5293L52.2129 33.6815L43.1295 63.6755H42.5891Z" fill="#F4B6C9"/>
<path d="M42.0525 63.6755L51.2234 33.3809L51.7181 33.5293L42.5891 63.6755H42.0525Z" fill="#F5B5C7"/>
<path d="M41.5122 63.6754L50.7288 33.2324L51.2235 33.3808L42.0525 63.6754H41.5122Z" fill="#F7B4C6"/>
<path d="M40.9717 63.6753L50.2339 33.0801L50.7287 33.2323L41.5121 63.6753H40.9717Z" fill="#F8B3C5"/>
<path d="M40.5151 63.6749L49.8154 32.9541L50.234 33.0797L40.9718 63.6749H40.5151Z" fill="#F8B3C5"/>
<path d="M40.0547 63.6755L49.3969 32.8291L49.8155 32.9547L40.5152 63.6755H40.0547Z" fill="#F8B4C5"/>
<path d="M39.5979 63.675L48.9782 32.6992L49.3967 32.8286L40.0545 63.675H39.5979Z" fill="#F8B5C5"/>
<path d="M39.1414 63.6756L48.5597 32.5742L48.9783 32.6998L39.598 63.6756H39.1414Z" fill="#F8B6C4"/>
<path d="M38.6809 63.675L48.1373 32.4443L48.5596 32.5737L39.1413 63.675H38.6809Z" fill="#F8B7C4"/>
<path d="M38.2244 63.6746L47.7188 32.3184L48.1373 32.4439L38.681 63.6746H38.2244Z" fill="#F8B8C4"/>
<path d="M37.7676 63.6752L47.3001 32.1934L47.7186 32.3189L38.2243 63.6752H37.7676Z" fill="#F8B9C4"/>
<path d="M37.311 63.6747L46.8816 32.0635L47.3001 32.1928L37.7677 63.6747H37.311Z" fill="#F8BAC3"/>
<path d="M36.8506 63.6753L46.4629 31.9385L46.8815 32.0641L37.311 63.6753H36.8506Z" fill="#F8BBC3"/>
<path d="M36.3938 63.6749L46.0404 31.8125L46.4628 31.9381L36.8505 63.6749H36.3938Z" fill="#F8BCC3"/>
<path d="M35.9373 63.6754L45.6219 31.6836L46.0405 31.813L36.3939 63.6754H35.9373Z" fill="#F8BDC3"/>
<path d="M35.4995 63.675L35.4805 63.6712L45.2032 31.5576L45.6218 31.6832L35.9371 63.675H35.4995Z" fill="#F8BEC2"/>
<path d="M44.8106 31.4627L35.085 63.5742L35.5038 63.7011L45.2294 31.5896L44.8106 31.4627Z" fill="#F8BFC2"/>
<path d="M44.3904 31.3358L34.6648 63.4473L35.0836 63.5741L44.8093 31.4626L44.3904 31.3358Z" fill="#F8C0C2"/>
<path d="M43.969 31.2117L34.2434 63.3232L34.6622 63.4501L44.3878 31.3386L43.969 31.2117Z" fill="#F8C1C2"/>
<path d="M43.5525 31.0848L33.8269 63.1963L34.2457 63.3231L43.9713 31.2117L43.5525 31.0848Z" fill="#F8C2C1"/>
<path d="M43.1284 30.9579L33.4028 63.0693L33.8217 63.1962L43.5473 31.0847L43.1284 30.9579Z" fill="#F8C3C1"/>
<path d="M42.7119 30.827L32.9863 62.9385L33.4051 63.0653L43.1308 30.9538L42.7119 30.827Z" fill="#F8C4C1"/>
<path d="M42.2952 30.7L32.5696 62.8115L32.9884 62.9384L42.714 30.8269L42.2952 30.7Z" fill="#F8C5C1"/>
<path d="M41.8702 30.576L32.1445 62.6875L32.5634 62.8144L42.289 30.7029L41.8702 30.576Z" fill="#F8C6C0"/>
<path d="M41.4536 30.4491L31.728 62.5605L32.1468 62.6874L41.8724 30.5759L41.4536 30.4491Z" fill="#F8C7C0"/>
<path d="M41.0369 30.3231L31.3113 62.4346L31.7301 62.5614L41.4557 30.45L41.0369 30.3231Z" fill="#F8C8C0"/>
<path d="M40.6167 30.1951L30.8911 62.3066L31.31 62.4335L41.0356 30.322L40.6167 30.1951Z" fill="#F8C9C0"/>
<path d="M40.1963 30.0643L30.4707 62.1758L30.8895 62.3026L40.6151 30.1911L40.1963 30.0643Z" fill="#F8CABF"/>
<path d="M39.7788 29.9412L30.0532 62.0527L30.472 62.1796L40.1977 30.0681L39.7788 29.9412Z" fill="#F8CBBF"/>
<path d="M30.0275 62.0198L29.6089 61.8904L39.305 29.8682H39.6208L39.7502 29.9062L30.0275 62.0198Z" fill="#F8CCBF"/>
<path d="M29.609 61.8904L29.1904 61.7648L38.8485 29.8682H39.3051L29.609 61.8904Z" fill="#F8CDBF"/>
<path d="M29.1904 61.7648L28.7717 61.6392L38.3917 29.8682H38.8484L29.1904 61.7648Z" fill="#F9CFBF"/>
<path d="M28.7718 61.6392L28.3494 61.5099L37.9313 29.8682H38.3918L28.7718 61.6392Z" fill="#F9D0BE"/>
<path d="M28.3492 61.5099L27.9307 61.3843L37.4745 29.8682H37.9312L28.3492 61.5099Z" fill="#F9D1BE"/>
<path d="M27.9308 61.3843L27.5122 61.2587L37.018 29.8682H37.4746L27.9308 61.3843Z" fill="#F9D2BE"/>
<path d="M27.5121 61.2587L27.0935 61.1293L36.5575 29.8682H37.0179L27.5121 61.2587Z" fill="#F9D3BE"/>
<path d="M27.0937 61.1293L26.675 61.0037L36.101 29.8682H36.5576L27.0937 61.1293Z" fill="#F9D4BD"/>
<path d="M26.6748 61.0037L26.2524 60.8743L35.6441 29.8682H36.1007L26.6748 61.0037Z" fill="#F9D5BD"/>
<path d="M26.2526 60.8743L25.834 60.7488L35.1876 29.8682H35.6442L26.2526 60.8743Z" fill="#F9D6BD"/>
<path d="M25.8339 60.7488L25.4153 60.6232L34.727 29.8682H35.1875L25.8339 60.7488Z" fill="#F9D7BD"/>
<path d="M25.4154 60.6232L24.9968 60.4938L34.2705 29.8682H34.7271L25.4154 60.6232Z" fill="#F9D8BC"/>
<path d="M24.9967 60.4938L24.5781 60.3682L33.8137 29.8682H34.2704L24.9967 60.4938Z" fill="#F9D9BC"/>
<path d="M24.5783 60.3682L24.1597 60.2427L33.3535 29.8682H33.8139L24.5783 60.3682Z" fill="#F9DABC"/>
<path d="M24.1597 60.2427L23.7373 60.1133L32.8969 29.8682H33.3535L24.1597 60.2427Z" fill="#F9DBBC"/>
<path d="M23.7372 60.1133L23.3186 59.9877L32.4401 29.8682H32.8967L23.7372 60.1133Z" fill="#F9DCBB"/>
<path d="M23.3187 59.9877L22.9001 59.8621L31.9798 29.8682H32.4402L23.3187 59.9877Z" fill="#F9DDBB"/>
<path d="M22.9 59.8621L22.4814 59.7327L31.523 29.8682H31.9796L22.9 59.8621Z" fill="#F9DEBB"/>
<path d="M22.4815 59.7327L22.4167 59.7137V58.4389L31.0664 29.8682H31.523L22.4815 59.7327Z" fill="#F9DFBB"/>
<path d="M22.4167 56.9244L30.6097 29.8682H31.0664L22.4167 58.4389V56.9244Z" fill="#F9E0BA"/>
<path d="M22.4167 55.4136L30.1492 29.8682H30.6097L22.4167 56.9244V55.4136Z" fill="#F9E1BA"/>
<path d="M22.4167 53.9029L29.6926 29.8682H30.1492L22.4167 55.4136V53.9029Z" fill="#F9E2BA"/>
<path d="M22.4167 52.3884L29.236 29.8682H29.6926L22.4167 53.9029V52.3884Z" fill="#F9E3BA"/>
<path d="M22.4167 50.8776L28.7755 29.8682H29.236L22.4167 52.3884V50.8776Z" fill="#F9E4B9"/>
<path d="M22.4167 49.3669L28.3189 29.8682H28.7755L22.4167 50.8776V49.3669Z" fill="#F9E5B9"/>
<path d="M22.4167 47.8524L27.8623 29.8682H28.3189L22.4167 49.3669V47.8524Z" fill="#F9E6B9"/>
<path d="M22.4167 46.3416L27.4018 29.8682H27.8623L22.4167 47.8524V46.3416Z" fill="#F9E7B9"/>
<path d="M22.4167 44.8309L26.9452 29.8682H27.4018L22.4167 46.3416V44.8309Z" fill="#F9E8B8"/>
<path d="M22.4167 43.3201L26.4885 29.8682H26.9452L22.4167 44.8309V43.3201Z" fill="#F9E9B8"/>
<path d="M22.4167 41.8056L26.0319 29.8682H26.4885L22.4167 43.3201V41.8056Z" fill="#F9EAB8"/>
<path d="M26.0319 29.8682L22.4167 41.8056V29.8682H26.0319Z" fill="#F9EAB8"/>
</g>
<path d="M38.0454 63.9186L37.9579 63.7968L22.1694 41.8207L22.2341 41.7066L28.3151 31.044L37.0979 29.6436L44.2406 41.5506L57.3691 35.9871L65.4822 42.8482L64.8429 55.1586L38.0454 63.9224V63.9186ZM22.6603 41.7941L38.2053 63.4315L64.4471 54.8504L65.0636 43.0271L57.3007 36.4628L44.077 42.0643L36.8924 30.0888L28.5815 31.4169L22.6642 41.7903L22.6603 41.7941Z" fill="black"/>
<path d="M17.543 62.7568L17.3721 63.3213L51.9164 73.7837L52.0874 73.2193L17.543 62.7568Z" fill="black"/>
<path d="M15.8065 68.4706L15.6355 69.0352L50.1798 79.4976L50.3508 78.9331L15.8065 68.4706Z" fill="black"/>
<path d="M14.0782 74.1855L13.9072 74.75L35.8211 81.3871L35.9921 80.8225L14.0782 74.1855Z" fill="black"/>
</svg>
